<mxfile host="app.diagrams.net" modified="2023-12-21T11:32:05.691Z" agent="Mozilla/5.0 (Windows NT 10.0; Win64; x64) AppleWebKit/537.36 (KHTML, like Gecko) Chrome/120.0.0.0 Safari/537.36" etag="_dXa6LXgo1tqwk7G472R" version="22.1.11" type="github">
  <diagram name="Halaman-1" id="HscqsUaejfkOQaurrjmP">
    <mxGraphModel dx="1757" dy="731" grid="1" gridSize="10" guides="1" tooltips="1" connect="1" arrows="1" fold="1" page="1" pageScale="1" pageWidth="827" pageHeight="1169" math="0" shadow="0">
      <root>
        <mxCell id="0" />
        <mxCell id="1" parent="0" />
        <mxCell id="KdkBQU5EMVkTz3Vir5r7-41" value="" style="group" vertex="1" connectable="0" parent="1">
          <mxGeometry x="180" y="107" width="80" height="55" as="geometry" />
        </mxCell>
        <mxCell id="KdkBQU5EMVkTz3Vir5r7-42" value="" style="ellipse;whiteSpace=wrap;html=1;" vertex="1" parent="KdkBQU5EMVkTz3Vir5r7-41">
          <mxGeometry width="80" height="55" as="geometry" />
        </mxCell>
        <mxCell id="KdkBQU5EMVkTz3Vir5r7-43" value="&lt;font style=&quot;font-size: 10px;&quot;&gt;Login&lt;/font&gt;" style="text;html=1;strokeColor=none;fillColor=none;align=center;verticalAlign=middle;whiteSpace=wrap;rounded=0;" vertex="1" parent="KdkBQU5EMVkTz3Vir5r7-41">
          <mxGeometry x="10" y="13.75" width="60" height="27.5" as="geometry" />
        </mxCell>
        <mxCell id="KdkBQU5EMVkTz3Vir5r7-167" value="" style="group" vertex="1" connectable="0" parent="1">
          <mxGeometry x="414" y="10" width="326" height="55" as="geometry" />
        </mxCell>
        <mxCell id="KdkBQU5EMVkTz3Vir5r7-50" value="" style="group" vertex="1" connectable="0" parent="KdkBQU5EMVkTz3Vir5r7-167">
          <mxGeometry width="80" height="55" as="geometry" />
        </mxCell>
        <mxCell id="KdkBQU5EMVkTz3Vir5r7-51" value="" style="ellipse;whiteSpace=wrap;html=1;" vertex="1" parent="KdkBQU5EMVkTz3Vir5r7-50">
          <mxGeometry width="80" height="55" as="geometry" />
        </mxCell>
        <mxCell id="KdkBQU5EMVkTz3Vir5r7-52" value="&lt;font style=&quot;font-size: 10px;&quot;&gt;Edit&lt;/font&gt;" style="text;html=1;strokeColor=none;fillColor=none;align=center;verticalAlign=middle;whiteSpace=wrap;rounded=0;" vertex="1" parent="KdkBQU5EMVkTz3Vir5r7-50">
          <mxGeometry x="10" y="13.75" width="60" height="27.5" as="geometry" />
        </mxCell>
        <mxCell id="KdkBQU5EMVkTz3Vir5r7-145" value="" style="group" vertex="1" connectable="0" parent="KdkBQU5EMVkTz3Vir5r7-167">
          <mxGeometry x="126" width="80" height="55" as="geometry" />
        </mxCell>
        <mxCell id="KdkBQU5EMVkTz3Vir5r7-146" value="" style="ellipse;whiteSpace=wrap;html=1;" vertex="1" parent="KdkBQU5EMVkTz3Vir5r7-145">
          <mxGeometry width="80" height="55" as="geometry" />
        </mxCell>
        <mxCell id="KdkBQU5EMVkTz3Vir5r7-147" value="&lt;span style=&quot;font-size: 10px;&quot;&gt;Input/ubah&lt;/span&gt;" style="text;html=1;strokeColor=none;fillColor=none;align=center;verticalAlign=middle;whiteSpace=wrap;rounded=0;" vertex="1" parent="KdkBQU5EMVkTz3Vir5r7-145">
          <mxGeometry x="10" y="13.75" width="60" height="27.5" as="geometry" />
        </mxCell>
        <mxCell id="KdkBQU5EMVkTz3Vir5r7-193" style="edgeStyle=orthogonalEdgeStyle;rounded=0;orthogonalLoop=1;jettySize=auto;html=1;entryX=0;entryY=0.5;entryDx=0;entryDy=0;" edge="1" parent="KdkBQU5EMVkTz3Vir5r7-167" source="KdkBQU5EMVkTz3Vir5r7-52" target="KdkBQU5EMVkTz3Vir5r7-146">
          <mxGeometry relative="1" as="geometry" />
        </mxCell>
        <mxCell id="KdkBQU5EMVkTz3Vir5r7-168" value="" style="group" vertex="1" connectable="0" parent="1">
          <mxGeometry x="414" y="200" width="326" height="55" as="geometry" />
        </mxCell>
        <mxCell id="KdkBQU5EMVkTz3Vir5r7-169" value="" style="group" vertex="1" connectable="0" parent="KdkBQU5EMVkTz3Vir5r7-168">
          <mxGeometry width="80" height="55" as="geometry" />
        </mxCell>
        <mxCell id="KdkBQU5EMVkTz3Vir5r7-170" value="" style="ellipse;whiteSpace=wrap;html=1;" vertex="1" parent="KdkBQU5EMVkTz3Vir5r7-169">
          <mxGeometry width="80" height="55" as="geometry" />
        </mxCell>
        <mxCell id="KdkBQU5EMVkTz3Vir5r7-171" value="&lt;font style=&quot;font-size: 10px;&quot;&gt;Edit&lt;/font&gt;" style="text;html=1;strokeColor=none;fillColor=none;align=center;verticalAlign=middle;whiteSpace=wrap;rounded=0;" vertex="1" parent="KdkBQU5EMVkTz3Vir5r7-169">
          <mxGeometry x="10" y="13.75" width="60" height="27.5" as="geometry" />
        </mxCell>
        <mxCell id="KdkBQU5EMVkTz3Vir5r7-172" value="" style="group" vertex="1" connectable="0" parent="KdkBQU5EMVkTz3Vir5r7-168">
          <mxGeometry x="126" width="80" height="55" as="geometry" />
        </mxCell>
        <mxCell id="KdkBQU5EMVkTz3Vir5r7-173" value="" style="ellipse;whiteSpace=wrap;html=1;" vertex="1" parent="KdkBQU5EMVkTz3Vir5r7-172">
          <mxGeometry width="80" height="55" as="geometry" />
        </mxCell>
        <mxCell id="KdkBQU5EMVkTz3Vir5r7-174" value="&lt;font style=&quot;font-size: 10px;&quot;&gt;Menghapus data&lt;br&gt;&lt;/font&gt;" style="text;html=1;strokeColor=none;fillColor=none;align=center;verticalAlign=middle;whiteSpace=wrap;rounded=0;" vertex="1" parent="KdkBQU5EMVkTz3Vir5r7-172">
          <mxGeometry x="10" y="13.75" width="60" height="27.5" as="geometry" />
        </mxCell>
        <mxCell id="KdkBQU5EMVkTz3Vir5r7-194" style="edgeStyle=orthogonalEdgeStyle;rounded=0;orthogonalLoop=1;jettySize=auto;html=1;entryX=0;entryY=0.5;entryDx=0;entryDy=0;" edge="1" parent="KdkBQU5EMVkTz3Vir5r7-168" source="KdkBQU5EMVkTz3Vir5r7-171" target="KdkBQU5EMVkTz3Vir5r7-173">
          <mxGeometry relative="1" as="geometry" />
        </mxCell>
        <mxCell id="KdkBQU5EMVkTz3Vir5r7-178" value="" style="group" vertex="1" connectable="0" parent="1">
          <mxGeometry x="414" y="97" width="326" height="56.5" as="geometry" />
        </mxCell>
        <mxCell id="KdkBQU5EMVkTz3Vir5r7-54" value="" style="group" vertex="1" connectable="0" parent="KdkBQU5EMVkTz3Vir5r7-178">
          <mxGeometry y="9.5" width="80" height="55" as="geometry" />
        </mxCell>
        <mxCell id="KdkBQU5EMVkTz3Vir5r7-55" value="" style="ellipse;whiteSpace=wrap;html=1;" vertex="1" parent="KdkBQU5EMVkTz3Vir5r7-54">
          <mxGeometry width="80" height="55" as="geometry" />
        </mxCell>
        <mxCell id="KdkBQU5EMVkTz3Vir5r7-56" value="&lt;font style=&quot;font-size: 10px;&quot;&gt;View&lt;/font&gt;" style="text;html=1;strokeColor=none;fillColor=none;align=center;verticalAlign=middle;whiteSpace=wrap;rounded=0;" vertex="1" parent="KdkBQU5EMVkTz3Vir5r7-54">
          <mxGeometry x="10" y="13.75" width="60" height="27.5" as="geometry" />
        </mxCell>
        <mxCell id="KdkBQU5EMVkTz3Vir5r7-151" value="" style="group" vertex="1" connectable="0" parent="KdkBQU5EMVkTz3Vir5r7-178">
          <mxGeometry x="127" y="9" width="80" height="55" as="geometry" />
        </mxCell>
        <mxCell id="KdkBQU5EMVkTz3Vir5r7-152" value="" style="ellipse;whiteSpace=wrap;html=1;" vertex="1" parent="KdkBQU5EMVkTz3Vir5r7-151">
          <mxGeometry width="80" height="55" as="geometry" />
        </mxCell>
        <mxCell id="KdkBQU5EMVkTz3Vir5r7-153" value="&lt;font style=&quot;font-size: 10px;&quot;&gt;Data Produk,Produk galery,dan transaksi&lt;/font&gt;" style="text;html=1;strokeColor=none;fillColor=none;align=center;verticalAlign=middle;whiteSpace=wrap;rounded=0;" vertex="1" parent="KdkBQU5EMVkTz3Vir5r7-151">
          <mxGeometry x="10" y="13.75" width="60" height="27.5" as="geometry" />
        </mxCell>
        <mxCell id="KdkBQU5EMVkTz3Vir5r7-192" style="edgeStyle=orthogonalEdgeStyle;rounded=0;orthogonalLoop=1;jettySize=auto;html=1;exitX=1;exitY=0.5;exitDx=0;exitDy=0;entryX=0;entryY=0.5;entryDx=0;entryDy=0;" edge="1" parent="KdkBQU5EMVkTz3Vir5r7-178" source="KdkBQU5EMVkTz3Vir5r7-56" target="KdkBQU5EMVkTz3Vir5r7-152">
          <mxGeometry relative="1" as="geometry" />
        </mxCell>
        <mxCell id="KdkBQU5EMVkTz3Vir5r7-195" style="edgeStyle=orthogonalEdgeStyle;rounded=0;orthogonalLoop=1;jettySize=auto;html=1;entryX=0;entryY=0.5;entryDx=0;entryDy=0;" edge="1" parent="1" source="KdkBQU5EMVkTz3Vir5r7-179" target="KdkBQU5EMVkTz3Vir5r7-185">
          <mxGeometry relative="1" as="geometry" />
        </mxCell>
        <mxCell id="KdkBQU5EMVkTz3Vir5r7-179" value="Actor" style="shape=umlActor;verticalLabelPosition=bottom;verticalAlign=top;html=1;outlineConnect=0;" vertex="1" parent="1">
          <mxGeometry y="104" width="30" height="60" as="geometry" />
        </mxCell>
        <mxCell id="KdkBQU5EMVkTz3Vir5r7-180" value="" style="group" vertex="1" connectable="0" parent="1">
          <mxGeometry x="280" y="107" width="80" height="55" as="geometry" />
        </mxCell>
        <mxCell id="KdkBQU5EMVkTz3Vir5r7-181" value="" style="ellipse;whiteSpace=wrap;html=1;" vertex="1" parent="KdkBQU5EMVkTz3Vir5r7-180">
          <mxGeometry width="80" height="55" as="geometry" />
        </mxCell>
        <mxCell id="KdkBQU5EMVkTz3Vir5r7-182" value="&lt;font style=&quot;font-size: 10px;&quot;&gt;Pengolahan&lt;/font&gt;" style="text;html=1;strokeColor=none;fillColor=none;align=center;verticalAlign=middle;whiteSpace=wrap;rounded=0;" vertex="1" parent="KdkBQU5EMVkTz3Vir5r7-180">
          <mxGeometry x="10" y="13.75" width="60" height="27.5" as="geometry" />
        </mxCell>
        <mxCell id="KdkBQU5EMVkTz3Vir5r7-183" value="" style="group" vertex="1" connectable="0" parent="1">
          <mxGeometry x="80" y="107" width="80" height="55" as="geometry" />
        </mxCell>
        <mxCell id="KdkBQU5EMVkTz3Vir5r7-184" value="" style="ellipse;whiteSpace=wrap;html=1;" vertex="1" parent="KdkBQU5EMVkTz3Vir5r7-183">
          <mxGeometry width="80" height="55" as="geometry" />
        </mxCell>
        <mxCell id="KdkBQU5EMVkTz3Vir5r7-185" value="&lt;font style=&quot;font-size: 10px;&quot;&gt;Admin&lt;/font&gt;" style="text;html=1;strokeColor=none;fillColor=none;align=center;verticalAlign=middle;whiteSpace=wrap;rounded=0;" vertex="1" parent="KdkBQU5EMVkTz3Vir5r7-183">
          <mxGeometry x="10" y="13.75" width="60" height="27.5" as="geometry" />
        </mxCell>
        <mxCell id="KdkBQU5EMVkTz3Vir5r7-187" style="edgeStyle=orthogonalEdgeStyle;rounded=0;orthogonalLoop=1;jettySize=auto;html=1;exitX=1;exitY=0.5;exitDx=0;exitDy=0;entryX=0;entryY=0.5;entryDx=0;entryDy=0;" edge="1" parent="1" source="KdkBQU5EMVkTz3Vir5r7-185" target="KdkBQU5EMVkTz3Vir5r7-42">
          <mxGeometry relative="1" as="geometry" />
        </mxCell>
        <mxCell id="KdkBQU5EMVkTz3Vir5r7-188" style="edgeStyle=orthogonalEdgeStyle;rounded=0;orthogonalLoop=1;jettySize=auto;html=1;exitX=1;exitY=0.5;exitDx=0;exitDy=0;entryX=0;entryY=0.5;entryDx=0;entryDy=0;" edge="1" parent="1" source="KdkBQU5EMVkTz3Vir5r7-43" target="KdkBQU5EMVkTz3Vir5r7-182">
          <mxGeometry relative="1" as="geometry" />
        </mxCell>
        <mxCell id="KdkBQU5EMVkTz3Vir5r7-189" style="edgeStyle=orthogonalEdgeStyle;rounded=0;orthogonalLoop=1;jettySize=auto;html=1;exitX=1;exitY=0.5;exitDx=0;exitDy=0;entryX=0;entryY=0.5;entryDx=0;entryDy=0;" edge="1" parent="1" source="KdkBQU5EMVkTz3Vir5r7-182" target="KdkBQU5EMVkTz3Vir5r7-51">
          <mxGeometry relative="1" as="geometry" />
        </mxCell>
        <mxCell id="KdkBQU5EMVkTz3Vir5r7-190" style="edgeStyle=orthogonalEdgeStyle;rounded=0;orthogonalLoop=1;jettySize=auto;html=1;exitX=1;exitY=0.5;exitDx=0;exitDy=0;entryX=0;entryY=0.5;entryDx=0;entryDy=0;" edge="1" parent="1" source="KdkBQU5EMVkTz3Vir5r7-182" target="KdkBQU5EMVkTz3Vir5r7-55">
          <mxGeometry relative="1" as="geometry" />
        </mxCell>
        <mxCell id="KdkBQU5EMVkTz3Vir5r7-197" style="edgeStyle=orthogonalEdgeStyle;rounded=0;orthogonalLoop=1;jettySize=auto;html=1;entryX=0;entryY=0.5;entryDx=0;entryDy=0;" edge="1" parent="1" source="KdkBQU5EMVkTz3Vir5r7-182" target="KdkBQU5EMVkTz3Vir5r7-170">
          <mxGeometry relative="1" as="geometry" />
        </mxCell>
        <mxCell id="KdkBQU5EMVkTz3Vir5r7-256" style="edgeStyle=orthogonalEdgeStyle;rounded=0;orthogonalLoop=1;jettySize=auto;html=1;entryX=0;entryY=0.5;entryDx=0;entryDy=0;" edge="1" parent="1" source="KdkBQU5EMVkTz3Vir5r7-198" target="KdkBQU5EMVkTz3Vir5r7-203">
          <mxGeometry relative="1" as="geometry" />
        </mxCell>
        <mxCell id="KdkBQU5EMVkTz3Vir5r7-198" value="Actor" style="shape=umlActor;verticalLabelPosition=bottom;verticalAlign=top;html=1;outlineConnect=0;" vertex="1" parent="1">
          <mxGeometry y="412.5" width="30" height="60" as="geometry" />
        </mxCell>
        <mxCell id="KdkBQU5EMVkTz3Vir5r7-206" value="" style="group" vertex="1" connectable="0" parent="1">
          <mxGeometry x="320" y="340" width="80" height="55" as="geometry" />
        </mxCell>
        <mxCell id="KdkBQU5EMVkTz3Vir5r7-207" value="" style="ellipse;whiteSpace=wrap;html=1;" vertex="1" parent="KdkBQU5EMVkTz3Vir5r7-206">
          <mxGeometry width="80" height="55" as="geometry" />
        </mxCell>
        <mxCell id="KdkBQU5EMVkTz3Vir5r7-208" value="&lt;font style=&quot;font-size: 10px;&quot;&gt;Home&lt;/font&gt;" style="text;html=1;strokeColor=none;fillColor=none;align=center;verticalAlign=middle;whiteSpace=wrap;rounded=0;" vertex="1" parent="KdkBQU5EMVkTz3Vir5r7-206">
          <mxGeometry x="10" y="13.75" width="60" height="27.5" as="geometry" />
        </mxCell>
        <mxCell id="KdkBQU5EMVkTz3Vir5r7-234" value="" style="group" vertex="1" connectable="0" parent="1">
          <mxGeometry x="80" y="415" width="320" height="55" as="geometry" />
        </mxCell>
        <mxCell id="KdkBQU5EMVkTz3Vir5r7-199" value="" style="group" vertex="1" connectable="0" parent="KdkBQU5EMVkTz3Vir5r7-234">
          <mxGeometry x="120" width="80" height="55" as="geometry" />
        </mxCell>
        <mxCell id="KdkBQU5EMVkTz3Vir5r7-200" value="" style="ellipse;whiteSpace=wrap;html=1;" vertex="1" parent="KdkBQU5EMVkTz3Vir5r7-199">
          <mxGeometry width="80" height="55" as="geometry" />
        </mxCell>
        <mxCell id="KdkBQU5EMVkTz3Vir5r7-201" value="&lt;font style=&quot;font-size: 10px;&quot;&gt;View&lt;/font&gt;" style="text;html=1;strokeColor=none;fillColor=none;align=center;verticalAlign=middle;whiteSpace=wrap;rounded=0;" vertex="1" parent="KdkBQU5EMVkTz3Vir5r7-199">
          <mxGeometry x="10" y="13.75" width="60" height="27.5" as="geometry" />
        </mxCell>
        <mxCell id="KdkBQU5EMVkTz3Vir5r7-202" value="" style="group" vertex="1" connectable="0" parent="KdkBQU5EMVkTz3Vir5r7-234">
          <mxGeometry width="80" height="55" as="geometry" />
        </mxCell>
        <mxCell id="KdkBQU5EMVkTz3Vir5r7-203" value="" style="ellipse;whiteSpace=wrap;html=1;" vertex="1" parent="KdkBQU5EMVkTz3Vir5r7-202">
          <mxGeometry width="80" height="55" as="geometry" />
        </mxCell>
        <mxCell id="KdkBQU5EMVkTz3Vir5r7-204" value="&lt;font style=&quot;font-size: 10px;&quot;&gt;User&lt;/font&gt;" style="text;html=1;strokeColor=none;fillColor=none;align=center;verticalAlign=middle;whiteSpace=wrap;rounded=0;" vertex="1" parent="KdkBQU5EMVkTz3Vir5r7-202">
          <mxGeometry x="10" y="13.75" width="60" height="27.5" as="geometry" />
        </mxCell>
        <mxCell id="KdkBQU5EMVkTz3Vir5r7-257" style="edgeStyle=orthogonalEdgeStyle;rounded=0;orthogonalLoop=1;jettySize=auto;html=1;entryX=0;entryY=0.5;entryDx=0;entryDy=0;" edge="1" parent="KdkBQU5EMVkTz3Vir5r7-234" source="KdkBQU5EMVkTz3Vir5r7-204" target="KdkBQU5EMVkTz3Vir5r7-200">
          <mxGeometry relative="1" as="geometry" />
        </mxCell>
        <mxCell id="KdkBQU5EMVkTz3Vir5r7-246" value="" style="group" vertex="1" connectable="0" parent="1">
          <mxGeometry x="430" y="500" width="320" height="55" as="geometry" />
        </mxCell>
        <mxCell id="KdkBQU5EMVkTz3Vir5r7-247" value="" style="group" vertex="1" connectable="0" parent="KdkBQU5EMVkTz3Vir5r7-246">
          <mxGeometry x="120" width="80" height="55" as="geometry" />
        </mxCell>
        <mxCell id="KdkBQU5EMVkTz3Vir5r7-248" value="" style="ellipse;whiteSpace=wrap;html=1;" vertex="1" parent="KdkBQU5EMVkTz3Vir5r7-247">
          <mxGeometry width="80" height="55" as="geometry" />
        </mxCell>
        <mxCell id="KdkBQU5EMVkTz3Vir5r7-249" value="&lt;font style=&quot;font-size: 10px;&quot;&gt;checkout dengan isi form&lt;/font&gt;" style="text;html=1;strokeColor=none;fillColor=none;align=center;verticalAlign=middle;whiteSpace=wrap;rounded=0;" vertex="1" parent="KdkBQU5EMVkTz3Vir5r7-247">
          <mxGeometry x="10" y="13.75" width="60" height="26.25" as="geometry" />
        </mxCell>
        <mxCell id="KdkBQU5EMVkTz3Vir5r7-250" value="" style="group" vertex="1" connectable="0" parent="KdkBQU5EMVkTz3Vir5r7-246">
          <mxGeometry width="80" height="55" as="geometry" />
        </mxCell>
        <mxCell id="KdkBQU5EMVkTz3Vir5r7-251" value="" style="ellipse;whiteSpace=wrap;html=1;" vertex="1" parent="KdkBQU5EMVkTz3Vir5r7-250">
          <mxGeometry width="80" height="55" as="geometry" />
        </mxCell>
        <mxCell id="KdkBQU5EMVkTz3Vir5r7-252" value="&lt;font style=&quot;font-size: 10px;&quot;&gt;detail produk&lt;/font&gt;" style="text;html=1;strokeColor=none;fillColor=none;align=center;verticalAlign=middle;whiteSpace=wrap;rounded=0;" vertex="1" parent="KdkBQU5EMVkTz3Vir5r7-250">
          <mxGeometry x="10" y="13.75" width="60" height="27.5" as="geometry" />
        </mxCell>
        <mxCell id="KdkBQU5EMVkTz3Vir5r7-253" value="" style="group" vertex="1" connectable="0" parent="KdkBQU5EMVkTz3Vir5r7-246">
          <mxGeometry x="240" width="80" height="55" as="geometry" />
        </mxCell>
        <mxCell id="KdkBQU5EMVkTz3Vir5r7-254" value="" style="ellipse;whiteSpace=wrap;html=1;" vertex="1" parent="KdkBQU5EMVkTz3Vir5r7-253">
          <mxGeometry width="80" height="55" as="geometry" />
        </mxCell>
        <mxCell id="KdkBQU5EMVkTz3Vir5r7-255" value="&lt;font style=&quot;font-size: 10px;&quot;&gt;success&lt;/font&gt;" style="text;html=1;strokeColor=none;fillColor=none;align=center;verticalAlign=middle;whiteSpace=wrap;rounded=0;" vertex="1" parent="KdkBQU5EMVkTz3Vir5r7-253">
          <mxGeometry x="10" y="13.75" width="60" height="27.5" as="geometry" />
        </mxCell>
        <mxCell id="KdkBQU5EMVkTz3Vir5r7-262" style="edgeStyle=orthogonalEdgeStyle;rounded=0;orthogonalLoop=1;jettySize=auto;html=1;exitX=1;exitY=0.5;exitDx=0;exitDy=0;entryX=0;entryY=0.5;entryDx=0;entryDy=0;" edge="1" parent="KdkBQU5EMVkTz3Vir5r7-246" source="KdkBQU5EMVkTz3Vir5r7-251" target="KdkBQU5EMVkTz3Vir5r7-248">
          <mxGeometry relative="1" as="geometry" />
        </mxCell>
        <mxCell id="KdkBQU5EMVkTz3Vir5r7-264" style="edgeStyle=orthogonalEdgeStyle;rounded=0;orthogonalLoop=1;jettySize=auto;html=1;entryX=0;entryY=0.5;entryDx=0;entryDy=0;" edge="1" parent="KdkBQU5EMVkTz3Vir5r7-246" source="KdkBQU5EMVkTz3Vir5r7-249" target="KdkBQU5EMVkTz3Vir5r7-254">
          <mxGeometry relative="1" as="geometry" />
        </mxCell>
        <mxCell id="KdkBQU5EMVkTz3Vir5r7-209" value="" style="group" vertex="1" connectable="0" parent="1">
          <mxGeometry x="320" y="500" width="80" height="55" as="geometry" />
        </mxCell>
        <mxCell id="KdkBQU5EMVkTz3Vir5r7-210" value="" style="ellipse;whiteSpace=wrap;html=1;" vertex="1" parent="KdkBQU5EMVkTz3Vir5r7-209">
          <mxGeometry width="80" height="55" as="geometry" />
        </mxCell>
        <mxCell id="KdkBQU5EMVkTz3Vir5r7-211" value="&lt;font style=&quot;font-size: 10px;&quot;&gt;Produk&lt;/font&gt;" style="text;html=1;strokeColor=none;fillColor=none;align=center;verticalAlign=middle;whiteSpace=wrap;rounded=0;" vertex="1" parent="KdkBQU5EMVkTz3Vir5r7-209">
          <mxGeometry x="10" y="13.75" width="60" height="27.5" as="geometry" />
        </mxCell>
        <mxCell id="KdkBQU5EMVkTz3Vir5r7-258" style="edgeStyle=orthogonalEdgeStyle;rounded=0;orthogonalLoop=1;jettySize=auto;html=1;entryX=0;entryY=0.5;entryDx=0;entryDy=0;" edge="1" parent="1" source="KdkBQU5EMVkTz3Vir5r7-200" target="KdkBQU5EMVkTz3Vir5r7-207">
          <mxGeometry relative="1" as="geometry" />
        </mxCell>
        <mxCell id="KdkBQU5EMVkTz3Vir5r7-259" style="edgeStyle=orthogonalEdgeStyle;rounded=0;orthogonalLoop=1;jettySize=auto;html=1;entryX=0;entryY=0.5;entryDx=0;entryDy=0;" edge="1" parent="1" source="KdkBQU5EMVkTz3Vir5r7-201" target="KdkBQU5EMVkTz3Vir5r7-210">
          <mxGeometry relative="1" as="geometry" />
        </mxCell>
        <mxCell id="KdkBQU5EMVkTz3Vir5r7-261" style="edgeStyle=orthogonalEdgeStyle;rounded=0;orthogonalLoop=1;jettySize=auto;html=1;entryX=0;entryY=0.5;entryDx=0;entryDy=0;" edge="1" parent="1" source="KdkBQU5EMVkTz3Vir5r7-211" target="KdkBQU5EMVkTz3Vir5r7-251">
          <mxGeometry relative="1" as="geometry" />
        </mxCell>
      </root>
    </mxGraphModel>
  </diagram>
</mxfile>
